<?xml version="1.0" encoding="UTF-8" standalone="no"?>
<svg
   width="256"
   height="259"
   viewBox="0 0 256 259"
   version="1.1"
   preserveAspectRatio="xMidYMid"
   id="svg16"
   sodipodi:docname="steam-seeklogo.svg"
   xmlns:inkscape="http://www.inkscape.org/namespaces/inkscape"
   xmlns:sodipodi="http://sodipodi.sourceforge.net/DTD/sodipodi-0.dtd"
   xmlns="http://www.w3.org/2000/svg"
   xmlns:svg="http://www.w3.org/2000/svg">
  <defs
     id="defs20">
    <linearGradient
       id="linearGradient1295"
       inkscape:swatch="solid">
      <stop
         style="stop-color:#000000;stop-opacity:1;"
         offset="0"
         id="stop1293" />
    </linearGradient>
    <linearGradient
       id="linearGradient1281"
       inkscape:swatch="solid">
      <stop
         style="stop-color:#000000;stop-opacity:1;"
         offset="0"
         id="stop1279" />
    </linearGradient>
  </defs>
  <sodipodi:namedview
     id="namedview18"
     pagecolor="#ffffff"
     bordercolor="#000000"
     borderopacity="0.25"
     inkscape:showpageshadow="2"
     inkscape:pageopacity="0.0"
     inkscape:pagecheckerboard="0"
     inkscape:deskcolor="#d1d1d1"
     showgrid="false" />
  <g
     inkscape:groupmode="layer"
     id="layer2"
     inkscape:label="Layer 2">
    <path
       id="path1311"
       style="fill:#ffffff;fill-opacity:1"
       d="m 170.08789,47.246094 c -26.66273,0 -48.35156,21.892308 -48.35156,48.794922 v 0.626953 L 91.169922,141.37695 c -0.664262,-0.0369 -1.336819,-0.0547 -2.019531,-0.0547 -7.565209,0 -14.604261,2.34274 -20.425782,6.36523 L 0,119.01367 v 43.73047 c 1.5184671,0.67941 2.8620573,1.20421 4.4101562,1.91016 l 49.1562498,20.50976 c 3.321312,16.75419 18.017941,29.41211 35.583985,29.41211 20.010889,0 36.294919,-16.43208 36.294919,-36.63672 0,-0.572 -0.0192,-1.15314 -0.0469,-1.73437 l 43.59179,-31.37696 c 0.36904,0.009 0.72862,0.0176 1.09766,0.0176 26.66273,0 48.35352,-21.90208 48.35352,-48.804684 0,-26.902614 -21.69079,-48.794922 -48.35352,-48.794922 z m 0.004,16.27539 c 17.75982,0 32.21679,14.595598 32.21679,32.521485 0,17.925881 -14.45697,32.511721 -32.21679,32.511721 -17.76905,0 -32.22657,-14.58584 -32.22657,-32.511721 0,-17.925887 14.45752,-32.521485 32.22657,-32.521485 z m 0.0469,8.044922 c -13.35907,0 -24.19922,10.931684 -24.19922,24.419922 0,13.488242 10.84015,24.421872 24.19922,24.421872 13.36831,0 24.20899,-10.93362 24.20899,-24.421872 0,-13.488238 -10.84068,-24.419922 -24.20899,-24.419922 z M 89.396484,150.39453 c 3.403194,0.0254 6.856253,0.69799 10.191407,2.0957 6.707199,2.82312 11.939259,8.11992 14.707029,14.91016 2.7678,6.79023 2.74855,14.26335 -0.0469,21.03516 -5.77541,13.99563 -21.754072,20.62958 -35.611331,14.79883 -6.411982,-2.69396 -11.24699,-7.60304 -14.033203,-13.47071 l 15.748046,6.56836 c 10.222266,4.29926 21.967568,-0.58 26.220708,-10.89453 4.26234,-10.31452 -0.57266,-22.16168 -10.794926,-26.46094 L 79.503906,152.1875 c 3.136797,-1.19475 6.489386,-1.81834 9.892578,-1.79297 z" />
  </g>
</svg>
